<svg xmlns="http://www.w3.org/2000/svg">
  <symbol id="tcl-badge-trunk" data-name="Model Y Trunk" viewBox="0 0 28 28" fill="none" xmlns="http://www.w3.org/2000/svg">
    <path fill-rule="evenodd" clip-rule="evenodd" d="M24.564 1.461a1.575 1.575 0 0 0-2.228 0L16.27 7.527l-3.68-1.082a23.8 23.8 0 0 0-6.716-.967H1.4a1.4 1.4 0 1 0 0 2.8h4.474a21 21 0 0 1 5.926.853l6.628 1.95a29.4 29.4 0 0 0 4.65.967l1.654.207-.295.885a5.053 5.053 0 0 0 .59 4.4c.113.17.173.37.173.575v1.363a1.4 1.4 0 0 1-1.4 1.4h-2.838a6.3 6.3 0 1 0-12.523 0H1.4a1.4 1.4 0 1 0 0 2.8h8.06a6.294 6.294 0 0 0 5.24 2.8 6.294 6.294 0 0 0 5.24-2.8h3.86a4.2 4.2 0 0 0 4.2-4.2v-1.363c0-.757-.224-1.498-.644-2.128a2.253 2.253 0 0 1-.263-1.962l.565-1.695a2.1 2.1 0 0 0-1.732-2.748l-2.501-.312a26.6 26.6 0 0 1-4.095-.843l4.12-4.12 1.11 1.11a1.4 1.4 0 0 0 1.98-1.98l-1.976-1.976ZM14.7 23.677a3.5 3.5 0 1 0 0-7 3.5 3.5 0 0 0 0 7Z" fill="var(--tds-color--secondary)"/>
    <path d="M9.543 13.106a1.4 1.4 0 0 0-.886-2.657c-2.061.687-3.988 1.329-7.257 1.329a1.4 1.4 0 1 0 0 2.8c3.727 0 6-.758 8.137-1.47l.006-.002Z" fill="var(--tds-color--secondary)"/>
  </symbol>
  <symbol id="tcl-badge-injector-camera" data-name="Camera (Alternate)" xmlns="http://www.w3.org/2000/svg" viewBox="0 0 24 24" xml:space="preserve">
    <path d="M22.5 12c0 5.8-4.7 10.5-10.5 10.5S1.5 17.8 1.5 12 6.2 1.5 12 1.5 22.5 6.2 22.5 12zm1.5 0c0 6.6-5.4 12-12 12S0 18.6 0 12 5.4 0 12 0s12 5.4 12 12zm-12 8c4.4 0 8-3.6 8-8s-3.6-8-8-8-8 3.6-8 8 3.6 8 8 8zm-2-8c1.1 0 2-.9 2-2s-.9-2-2-2-2 .9-2 2 .9 2 2 2zm6 3c0 .6-.4 1-1 1s-1-.4-1-1 .4-1 1-1 1 .4 1 1z" fill="var(--tds-color--secondary)" fill-rule="evenodd"/>
  </symbol>
  <symbol id="tcl-badge-customers2" data-name="Customers 2" viewBox="0 0 28 28" xmlns="http://www.w3.org/2000/svg">
    <path d="M12.9948 7.87504C12.9948 9.53943 11.6321 10.9167 9.91667 10.9167C8.20119 10.9167 6.83853 9.53943 6.83853 7.87504C6.83853 6.21065 8.20119 4.83337 9.91667 4.83337C11.6321 4.83337 12.9948 6.21065 12.9948 7.87504ZM9.91667 17.7639C13.708 17.7639 16.3347 19.6877 17.1593 22H2.67408C3.49859 19.6877 6.1253 17.7639 9.91667 17.7639Z" fill="white" stroke="white" stroke-width="5"/>
    <path fill-rule="evenodd" clip-rule="evenodd" d="M15.1666 12.5997C16.0153 13.1179 17.0141 13.4167 18.0833 13.4167C21.164 13.4167 23.6614 10.9356 23.6614 7.87504C23.6614 4.81453 21.164 2.33337 18.0833 2.33337C17.0141 2.33337 16.0153 2.6322 15.1666 3.15037C15.7364 3.49826 16.2384 3.94503 16.6485 4.46662C17.0902 4.28242 17.575 4.1806 18.0833 4.1806C20.1339 4.1806 21.802 5.83795 21.802 7.87504C21.802 9.91213 20.1339 11.5695 18.0833 11.5695C17.575 11.5695 17.0902 11.4677 16.6485 11.2835C16.2384 11.805 15.7364 12.2518 15.1666 12.5997ZM19.3701 17.1822C23.3649 17.635 25.6647 20.1741 26.1224 22.5807C26.0934 22.6155 26.0365 22.6528 25.9602 22.6528H22.1402C22.0384 23.3344 21.4591 23.9922 20.779 24.5H25.9602C26.5849 24.5 27.1671 24.2282 27.5593 23.7532C27.9273 23.3082 28.075 22.7358 27.9637 22.1814C27.149 18.1081 23.0864 15.2639 18.0833 15.2639C17.685 15.2639 17.2927 15.282 16.9076 15.3172C17.8223 15.8205 18.6516 16.4567 19.3701 17.1822Z" fill="white"/>
  </symbol>
  <symbol id="tcl-badge-service" data-name="Service" viewBox="0 0 28 28" xmlns="http://www.w3.org/2000/svg">
    <path d="M25.6666 8.75C25.6666 12.2938 22.7938 15.1667 19.2499 15.1667C18.3346 15.1667 17.4639 14.975 16.676 14.6296L6.32053 24.9851C5.40931 25.8963 3.93192 25.8963 3.0207 24.9851C2.10947 24.0739 2.10947 22.5965 3.0207 21.6852L13.3739 11.332C13.0263 10.542 12.8333 9.66853 12.8333 8.75C12.8333 5.20617 15.7061 2.33333 19.2499 2.33333C19.9126 2.33333 20.5518 2.43378 21.1531 2.62028C21.5408 2.74053 21.6292 3.22463 21.3421 3.51167L18.5342 6.3196C17.7336 7.12016 17.8233 8.50784 18.7346 9.41907C19.6458 10.3303 21.0335 10.42 21.834 9.61943L24.5584 6.89508C24.8518 6.60161 25.3471 6.70199 25.4533 7.10319C25.5925 7.62873 25.6666 8.18071 25.6666 8.75Z" fill="white"/>
  </symbol>
  <symbol id="tcl-badge-seal" data-name="Seal" viewBox="0 0 28 28" xmlns="http://www.w3.org/2000/svg">
    <path fill-rule="evenodd" clip-rule="evenodd" d="M22.2243 11.8622C22.2243 16.4804 18.4804 20.2243 13.8622 20.2243C9.24387 20.2243 5.5 16.4804 5.5 11.8622C5.5 7.24387 9.24387 3.5 13.8622 3.5C18.4804 3.5 22.2243 7.24387 22.2243 11.8622ZM18.0431 20.7968C16.7737 21.3918 15.3568 21.7243 13.8622 21.7243C12.3674 21.7243 10.9504 21.3918 9.68096 20.7967V24.2299L13.4071 22.4385C13.6946 22.3003 14.0294 22.3003 14.317 22.4385L18.0431 24.2299V20.7968ZM19.5431 19.9247C22.0725 18.1393 23.7243 15.1936 23.7243 11.8622C23.7243 6.41544 19.3089 2 13.8622 2C8.41544 2 4 6.41544 4 11.8622C4 15.1935 5.65175 18.1391 8.18096 19.9246V24.9456C8.18096 25.7191 8.98884 26.2271 9.68592 25.8919L13.862 23.8842L18.0382 25.8919C18.7352 26.2271 19.5431 25.7191 19.5431 24.9456V19.9247ZM20.0259 11.8622C20.0259 15.2664 17.2663 18.026 13.8621 18.026C10.4579 18.026 7.69822 15.2664 7.69822 11.8622C7.69822 8.45799 10.4579 5.69834 13.8621 5.69834C17.2663 5.69834 20.0259 8.45799 20.0259 11.8622Z" fill="var(--tds-color--secondary)"/>
  </symbol>
</svg>